# xmcd CD database file
#
# Track frame offsets:
#	182
#	24717
#	55942
#	78657
#	103472
#	127302
#	162182
#	192207
#	220045
#	246507
#
# Disc length: 3842 seconds
#
# Revision: 0
# Processed by: cddbd v1.5.1PL0 Copyright (c) Steve Scherf et al.
# Submitted via: CDex 1.51
#
DISCID=960f000a
DTITLE=Jossie Esteban and La Patrulla 15 - Digital Remix
DYEAR=1994
DGENRE=Merengue
TTITLE0=Pega pecho mix
TTITLE1=El cantinero rap
TTITLE2=Me gusta este mix
TTITLE3=El muñeco
TTITLE4=La negra
TTITLE5=Patrulla hits mix
TTITLE6=El tigeron
TTITLE7=Perfidia
TTITLE8=El moreno esta
TTITLE9=Eras una niña
EXTD=YEAR: 1994
EXTT0=
EXTT1=
EXTT2=
EXTT3=
EXTT4=
EXTT5=
EXTT6=
EXTT7=
EXTT8=
EXTT9=
PLAYORDER=
